# xmcd
#
# Track frame offsets: 
#        150
#        12505
#        25654
#        39510
#        52096
#        63375
#        77497
#        89665
#        102423
#        115227
#        128073
#        141809
#        154636
#        165744
#        178261
#        188444
#        200849
#        212786
#        226565
#        238772
#        250964
#        262266
#        275902
#        301379
#        314848
#
# Disc length: 4351 seconds
#
# Revision: 1
# Processed by: cddbd v1.5.2PL0 Copyright (c) Steve Scherf et al.
# Submitted via: ExactAudioCopy v1.0b1
#
DISCID=7010fd19
DTITLE=Billie Holiday - Summertime - The Best Of Billie Holiday
DYEAR=1998
DGENRE=Blues
TTITLE0=God Bless The Child
TTITLE1=Strange Fruit
TTITLE2=Georgia On My Mind
TTITLE3=Summertime
TTITLE4=Billie's Blues
TTITLE5=These Foolish Things
TTITLE6=A Fine Romance
TTITLE7=The Man I Love
TTITLE8=My Man
TTITLE9=More Than You Know
TTITLE10=Pennies From Heaven
TTITLE11=Am I Blue
TTITLE12=No Regrets
TTITLE13=Let's Do It
TTITLE14=When A Woman Loves A Man
TTITLE15=I've Got My Love To Keep Me Warm
TTITLE16=St Louis Blues
TTITLE17=I Cry For You
TTITLE18=I Got A Right To Sing The Blues
TTITLE19=I Can't Get Started
TTITLE20=I've Got A Date With A Dream
TTITLE21=This Is My Last Affair
TTITLE22=Long Gone Blues
TTITLE23=Can't Help Loving That Man
TTITLE24=Sugar
EXTD=
EXTT0=
EXTT1=
EXTT2=
EXTT3=
EXTT4=
EXTT5=
EXTT6=
EXTT7=
EXTT8=
EXTT9=
EXTT10=
EXTT11=
EXTT12=
EXTT13=
EXTT14=
EXTT15=
EXTT16=
EXTT17=
EXTT18=
EXTT19=
EXTT20=
EXTT21=
EXTT22=
EXTT23=
EXTT24=
PLAYORDER=
